<svg height="100" width="100" viewBox="0 0 256 192" xmlns="http://www.w3.org/2000/svg">
  <rect width="256" height="192" fill="#ffffff"/> <!-- Background color -->
  <g fill="#0080ff">
    <path d="m127.806368 103.431977v24.705088c41.873768 0 74.477145-40.4530763 60.779332-84.3320565-5.985904-19.1753428-21.222618-34.41205666-40.397961-40.39796034-43.87898-13.69781306-84.3327815 18.90628894-84.3327815 60.78005664h24.7616544c.0036261 0 .0065269-.0065269.0065269-.0065269.0036261-26.2787989 26.0104702-46.5956261 53.6388892-36.5702889 10.235649 3.7145382 18.400091 11.8775297 22.116805 22.1124532 10.02684 27.6122194-10.259442 53.6088108-36.515898 53.6461018v-24.6252746s-.002176-.0014504-.004351-.0014504h-24.685508c-.002175 0-.004351.003626-.004351.003626v24.686232zm-24.641994 18.973734h-18.9672069l-.0043512-.004351v-18.969383h18.9759091v18.969383s-.002175.004351-.004351.004351zm-18.9585043-18.973734h-15.9002833c-.0065269 0-.0116034-.004351-.0116034-.004351v-15.8930311s.0050765-.0116034.0116034-.0116034h15.8886799c.0065269 0 .0116034.0050765.0116034.0050765z"/>
    <path d="m22.0964986 153.197507c-3.2192181-2.233654-7.2252918-3.365711-11.9065383-3.365711h-10.1899603v32.329246h10.1899603c4.6696431 0 8.6771672-1.19515 11.9101643-3.549915 1.7593655-1.248815 3.1416204-2.993677 4.1090539-5.184543.9623569-2.179264 1.4504249-4.750142 1.4504249-7.640114 0-2.856612-.488068-5.39413-1.4511501-7.542935-.9667083-2.158957-2.3504136-3.856679-4.1119547-5.046028zm-16.1446799 2.098765h3.19818697c3.55861753 0 6.48775073.69983 8.70907653 2.08281 2.4657223 1.486686 3.7167138 4.315014 3.7167138 8.407388 0 4.214935-1.2538923 7.170901-3.7254164 8.78885h-.0021756c-2.1270482 1.406912-5.0387762 2.120521-8.65396037 2.120521h-3.24242493zm25.8813824 26.86477h5.7299037v-22.77022h-5.7299037zm2.9197054-32.727388c-.9790368 0-1.8231841.347377-2.5027082 1.027626-.6875014.654867-1.0363286 1.485236-1.0363286 2.467898 0 .979037.3466515 1.822459 1.0319773 2.50706.6838754.685326 1.5280227 1.032703 2.5070595 1.032703s1.8224589-.347377 2.5077847-1.032703c.686051-.685326 1.0327026-1.528748 1.0327026-2.50706 0-.981212-.3488272-1.81158-1.0327026-2.463546-.6853258-.684601-1.5287479-1.031978-2.5077847-1.031978zm23.6179943 11.8594c-1.727456-1.536725-3.6565212-2.433088-5.7429575-2.433088-3.1626515 0-5.7915467 1.094346-7.8127138 3.249677-2.0465496 2.138652-3.0850539 4.890833-3.0850539 8.179671 0 3.214142 1.0218244 5.956896 3.0415411 8.156465 2.0356714 2.127773 4.6790708 3.206164 7.8562266 3.206164 2.2089972 0 4.1076034-.61498 5.6552068-1.829711v.524329c0 1.889178-.5061983 3.359184-1.5033654 4.36868-.9964419 1.008045-2.3786969 1.518595-4.1068782 1.518595-2.6448498 0-4.3026855-1.03923-6.3209518-3.766754l-3.9016431 3.748623.1051558.147944c.8426969 1.182821 2.1335751 2.34026 3.8370992 3.440408 1.7042493 1.09507 3.8465269 1.652034 6.3680906 1.652034 3.4019717 0 6.1534278-1.048658 8.1796714-3.116238 2.037847-2.078459 3.0712748-4.861825 3.0712748-8.269598v-20.679433h-5.6407026zm-1.5026402 13.44834c-1.0015184 1.137133-2.2873201 1.688294-3.9306515 1.688294-1.6426063 0-2.9211558-.551161-3.90817-1.686844-.9819377-1.130606-1.4808839-2.628895-1.4808839-4.45353 0-1.854368.4989462-3.371512 1.4816091-4.510096.9732351-1.126255 2.2880453-1.697722 3.9074448-1.697722 1.641881 0 2.9284079.555512 3.9299263 1.700623.9978924 1.137858 1.5033654 2.654278 1.5033654 4.507195 0 1.82391-.505473 3.322199-1.5026402 4.45208zm12.0472295 7.419648h5.7299037v-22.77022h-5.7299037zm2.9204306-32.727388c-.9797621 0-1.8239094.347377-2.5034334 1.027626-.6875015.654867-1.0363287 1.485236-1.0363287 2.467898 0 .979037.3466516 1.822459 1.0319774 2.50706.6838753.685326 1.5280226 1.032703 2.5077847 1.032703.9783116 0 1.8217337-.347377 2.5077847-1.032703.685326-.685326 1.0327025-1.528748 1.0327025-2.50706 0-.981212-.3488265-1.81158-1.0327025-2.463546-.685326-.684601-1.5287481-1.031978-2.5077847-1.031978zm10.9050842 32.727388h5.7299037v-12.411466c0-2.54412.592802-4.448458 1.7601355-5.657265 1.0661248-1.102579 2.4997598-1.674771 4.2676884-1.674771 1.768654 0 3.202289 1.105971 4.267688 2.820048 1.0523209 1.693364 1.4939512 3.734532 1.4939512 5.997982v10.925472h5.7299037v-12.206956c0-2.917401-.692249-5.414416-2.0465496-7.154146-1.363746-1.742404-3.3077176-2.686375-5.5614933-2.686375-2.451105 0-4.468645 1.113549-6.080687 3.240263v-3.038948h-5.5614934c.0181304.834196.0181304 22.846154.0181304 22.846154zm19.1363705 0h5.7299037v-22.77022h-5.7299037zm2.9204307-32.727388c-.979037 0-1.823909.347377-2.503433 1.027626-.6875015.654867-1.0363287 1.485236-1.0363287 2.467898 0 .979037.3466515 1.822459 1.0319773 2.50706.6838754.685326 1.5280227 1.032703 2.5077847 1.032703.9783116 0 1.8217337-.347377 2.5077847-1.032703.685326-.685326 1.0327025-1.528748 1.0327025-2.50706 0-.981212-.3488264-1.81158-1.0327025-2.463546-.6853258-.684601-1.5287478-1.031978-2.5077847-1.031978zm11.2659814-2.319703v22.77022h5.4828411v-22.77022zm2.7403422-8.041212c-1.0185058 0-1.8777385.365737-2.5512759 1.074769-.6882251.720249-1.0399271 1.575121-1.0399271 2.551276 0 .960444.3635612 1.81158 1.0399271 2.502708.6763664.691852 1.5363236 1.052320 2.5512759 1.052320.981212 0 1.826809-.360468 2.503433-.963285.683875-.602092 1.040652-1.448414 1.040652-2.591743 0-1.075983-.363561-1.931579-1.085334-2.639887-.720249-.707582-1.5794819-1.086125-2.4587811-1.086125zm10.2076758 32.778048h5.6407027v-12.411466c0-2.54412.591352-4.448458 1.7594102-5.657265 1.066124-1.102579 2.4985609-1.674771 4.2664893-1.674771 1.768653 0 3.202288 1.105971 4.266489 2.820048 1.053046 1.693364 1.493951 3.734532 1.493951 5.997982v10.925472h5.7299037v-12.206956c0-2.917401-.692249-5.414416-2.045824-7.154146-1.363746-1.742404-3.307717-2.686375-5.561493-2.686375-2.451105 0-4.468645 1.113549-6.080687 3.240263v-3.038948h-5.561493c.018130.834196.018130 22.846154.018130 22.846154zm19.13637 0h5.7299037v-22.77022h-5.7299037zm2.920431-32.727388c-.979037 0-1.823909.347377-2.503433 1.027626-.687502.654867-1.036329 1.485236-1.036329 2.467898 0 .979037.346652 1.822459 1.031977 2.50706.683876.685326 1.528023 1.032703 2.507785 1.032703.978311 0 1.821734-.347377 2.507785-1.032703.685326-.685326 1.032702-1.528748 1.032702-2.50706 0-.981212-.348826-1.81158-1.032702-2.463546-.685326-.684601-1.528748-1.031978-2.507785-1.031978zm11.265981-2.319703v22.77022h5.482841v-22.77022zm2.740342-8.041212c-1.018506 0-1.877739.365737-2.551276 1.074769-.688225.720249-1.039927 1.575121-1.039927 2.551276 0 .960444.363561 1.81158 1.039927 2.502708.676367.691852 1.536324 1.05232 2.551276 1.05232.981212 0 1.826809-.360468 2.503433-.963285.683875-.602092 1.040652-1.448414 1.040652-2.591743 0-1.075983-.363561-1.931579-1.085334-2.639887-.720249-.707582-1.579482-1.086125-2.458781-1.086125zm10.207676 32.778048h5.729903v-12.411466c0-2.54412.591352-4.448458 1.75941-5.657265 1.066124-1.102579 2.498561-1.674771 4.266489-1.674771 1.768653 0 3.202288 1.105971 4.266489 2.820048 1.053046 1.693364 1.493951 3.734532 1.493951 5.997982v10.925472h5.729904v-12.206956c0-2.917401-.692249-5.414416-2.045824-7.154146-1.363746-1.742404-3.307717-2.686375-5.561493-2.686375-2.451105 0-4.468645 1.113549-6.080687 3.240263v-3.038948h-5.561493c.01813.834196.01813 22.846154.01813 22.846154z"/>
  </g>
</svg>
